<?xml version="1.0" encoding="utf-8"?>
<!-- Generator: Adobe Illustrator 16.0.0, SVG Export Plug-In . SVG Version: 6.00 Build 0)  -->
<!DOCTYPE svg PUBLIC "-//W3C//DTD SVG 1.0//EN" "http://www.w3.org/TR/2001/REC-SVG-20010904/DTD/svg10.dtd">
<svg version="1.0" id="Layer_1" xmlns="http://www.w3.org/2000/svg" xmlns:xlink="http://www.w3.org/1999/xlink" x="0px" y="0px"
	 width="307.484px" height="308.985px" viewBox="0 0 307.484 308.985" enable-background="new 0 0 307.484 308.985"

	 xml:space="preserve">
<g>
	<g>
		<path d="M113.508,26.309c1.53-0.778,3.254-1.414,4.765-1.082c4.25,0.935-3.813,19.491-4.57,23.776
			c-3.42,19.334-7.79,38.285-13.269,57.146c-1.467,6.242-2.421,11.979-11.234,12.313c-3.927,0.204-10.811,0.094-11.33-0.962
			c-0.823-1.679,7.357-21.082,8.272-23.894c2.973-9.136,6.07-18.225,8.967-27.363c-3.583,0.348-17.118,32.787-19.481,37.063
			c-7.188,13.011-8.042,14.403-21.641,12.745c-3.009-0.367,11.107-43.422,12.439-46.369c-3.986-1.063-19.415,37.75-19.62,38.38
			c-3.279,10.069-23.351,7.423-16.397-5.632c0.071,0.017,0.106,0.025,0.177,0.042c0.563-9.382,13.08-22.505,19.17-29.317
			c-0.058,0.004,0.592-0.734,0.535-0.73c8.464-10.096,17.797-18.949,27.94-27.428c-0.098,0.102-0.342,0.285,0,0
			c-0.098,0.102-0.146,0.152-0.244,0.254c4.133-3.811,9.53-6.751,14.48-9.345c-2.167,7.163-4.462,14.833-7.085,21.821
			c6.367-1.262,9.873-23.824,19.423-27.746 M113.397,26.347 M111.836,26.888"/>
		<path d="M137.263,18.956c3.856-0.398,7.819-0.867,11.678-0.216c0.004-0.146,0.007-0.22,0.011-0.366
			c6.038,24.287,5.108,49.234,14.256,73.323c4.963,13.069,10.146,16.824-4.699,18.61c-11.065,1.331-12.375,3.364-15.292-7.884
			c-6.033,0.826-11.918,1.396-18.039,2.169c7.177-0.905-26.148,22.479-22.52,11.808c5.941-17.432,16.767-33.25,22.5-51.205
			C127.187,58.838,134.59,19.233,137.263,18.956C140.635,18.607,136.884,18.996,137.263,18.956z M137.269,68.51
			c-0.403,1.841-4.657,11.623-3.65,12.791c4.844,5.612,6.114-9.603,3.792-12.805C137.354,68.502,137.326,68.505,137.269,68.51
			C136.738,70.937,137.326,68.505,137.269,68.51z"/>
		<path d="M192.782,26.255 M193.856,26.595c2.17,0.416,5.301,0.858,6.879,2.381c9.719,9.322-4.41,29.955,2.895,41.487
			c7.137,11.268,20.615,21.335,25.84,33.323c0.883,2.024-19.311,0.729-20.623,0.732c-4.863,0.15-11.043-11.678-14.045-15.413
			c-5.219,0.459,10.953,14.869-4.684,16.829c-1.98,0.248-13.904,3.012-15.127,1.107c-1.258-9.236-2.314-18.5-3.217-27.777
			c-0.127-1.312-3.791-58.336-3.48-58.275c0.529,0.105,8.379,1.49,9.016,1.919c9.904,6.683,3.268,32.13,9.166,32.298
			c1.199-9.768,1.379-19.927,3.041-29.598"/>
		<path d="M207.661,32.291c14.229,6.653,40.82,19.059,47.754,34.123c-0.934-2.034-17.447-4.359-21.51-4.592
			c5.414,9.311,14.074,6.861,20.879,17.345c-1.188,0.784-2.438,0.931-3.75,0.44c-0.936-0.141-7.223-0.618-7.4-0.635
			c3.08,13.639,24.74,2.51,30.57,11.91c0.955,1.542,7.604,18.643,8.637,18.912c0.439,1.396,0.336,2.056-0.381,1.867
			c-14.303-3.781-31.996-2.072-45.563-7.158c-4.691-1.759-15.773-35.438-17.609-40.023c-1.521-3.775-8.664-30.918-11.912-32.313
			C207.491,32.216,207.546,32.241,207.661,32.291C214.333,35.41,207.546,32.241,207.661,32.291z"/>
	</g>
	<g>
		<path d="M24.774,116.292c3.255,0.891,30.79,5.514,30.294,8.938c-1.117,7.729-0.433,15.652-2.356,23.279
			c-0.666,2.641-11.398-1.262-13.948-1.584c-1.467-0.186-3.123-0.598-4.658-0.637c-0.101,2.908-0.13,2.105-0.103,5.051
			c12.022,0.813,11.985,17.468,6.493,18.141c-2.943,0.36-6.153,0.795-6.159,0.984c-0.201,6.761,18.746,2.246,20.028,11.4
			c0.023,0.17,2.876,20.613,4.124,20.732c0.23,1.25,0.147,1.854-0.27,1.814c-6.546-0.6-11.494-1.576-18.658-2.904
			c-4.928-0.935-13.661-4.446-10.725-2.339c-4.629-3.323-4.163-16.216-5.883-21.439c-0.649-1.976-2.39-43.401-2.446-43.421
			c0.571-1.844,2.038-18.641,3.971-18.098C24.598,116.244,24.655,116.259,24.774,116.292
			C31.513,118.135,24.655,116.259,24.774,116.292z"/>
		<path d="M65.691,123.458c3.715,0.271,7.08,0.677,10.558,0.788c6.215,0.197,3.177,30.275,7.87,30.15
			c0.157-0.353,0.162-0.707,0.015-1.063c0.046-0.001,0.069-0.002,0.114-0.004c0.08-5.584-0.771-34.392,10.849-29.072
			c12.137,5.557,2.79,31.292,1.303,40.558c0.233,9.21,2.399,20.025,4.25,29.087c0.763,6.278-6.896,15.889-14.526,8.664
			c-5.363-11.275-7.8-34.683-13.057-35.831c-3.209-0.701,3.415,26.256,2.944,38.814c-9.372-0.138-10.898,1.099-12.851-7.995
			c-1.916-5.854-4.313-41.127-4.241-44.904c0.045,0.004,0.069,0.007,0.115,0.012C59.132,147.406,57.477,122.861,65.691,123.458
			C67.928,123.621,64.527,123.373,65.691,123.458z"/>
		<path d="M131.846,120.173c0.446,0.148,4.928-0.557,4.609-0.42c2.221-0.955,0.446,18.758,0.688,9.16
			c-0.121,4.783-0.216,9.567-0.284,14.352c-0.048,4.551-6.869,3.486-4.548,3.695c-1.193-0.107-6.18,1.46-5.786,1.066
			c-1.5,1.5,1.851,12.743,2.125,23.75c0.441,17.679,6.683,28.5-7.733,29.75c-19.865,1.723-7.767-40.25-8.666-51.692
			c-0.317-4.045-9.345,5.113-7.003-10.126c1.776-11.557-7.33-15.314,6.569-16.355 M114.197,122.839"/>
		<path d="M141.208,118.852c2.764-0.4,33.815-6.658,33.944-3.006c0.244,7.064,0.881,20.513-0.584,27.556
			c-0.637,3.055-9.017-0.566-14.204-1.501c-6.584-1.188-5.504,1.923-6.463,4.173c-0.383,0.899,12.5-3.005,10.278,8.923
			c-0.642,3.446-13.765-1.806-11.537,7.444c0.213,0.886,19.713-5.021,21.12-3.64c1.208,1.187,0.83,28.598,0.639,31.602
			c0.043-0.009,0.063-0.013,0.105-0.021c-0.537,4.649-24,7.129-25.791,6.661c-9.204,0.924-8.631-13.109-8.647-13.717
			c-0.402-15.074-0.896-30.328-0.232-45.365c-0.038,0.008-0.056,0.011-0.095,0.018C140.273,135.252,138.774,119.235,141.208,118.852
			C148.004,117.868,141.089,118.872,141.208,118.852z"/>
		<path d="M193.706,111.094c26.529-2.186,24.704,21.285,16.529,36.474c-0.113,4.402,12.333,34.999,0.967,39.78
			c0.103-0.043,0.027-0.165,0.045-0.274c-1.154,1.49-9.461,0.906-11.197,1.052c-2.383,0.2-0.178-19.952-0.184-19.851
			c0.055-0.799,1.699-10.991-1.145-11.662c-1.531-0.363-6.342-0.865-6.443,1.885c-0.299,8.146-0.791,16.294-1.473,24.421
			c-0.725,8.595-4.094,7.22-13.166,8.851c-0.467,0.084,0.01-6.607,0.07-7.762c-0.035,0.007-0.057,0.011-0.092,0.018
			c1.051-20.425,1.162-40.775,0.619-61.253c0.037-0.006,0.055-0.009,0.092-0.015c-0.494-1.922-0.238-4.711-0.313-6.781
			c0.037-0.006,0.053-0.008,0.092-0.014C176.792,110.514,191.229,111.289,193.706,111.094
			C195.632,110.856,188.704,111.486,193.706,111.094z M192.403,136.101c0.025,2.398-0.115,5.081,0.301,7.434
			C211.839,140.749,192.382,133.632,192.403,136.101C192.409,136.664,192.399,135.632,192.403,136.101z"/>
		<g>
			<path d="M231.767,109.638c9.816-2.508,13.195,1.632,18.216,9.725c3.092,4.984,9.433,23.454,5.674,23.767
				c-11.255,0.939-22.588-24.583-23.38,0.301c-0.085,2.68-2.506,17.954,3.854,18.216c0.973,0.039,5.34-4.699,3.85-5.888
				c-11.647-9.289,14.993-14.487,16.725-4.45c1.026,5.947-0.249,16.02-2.834,23.119c-1.245,3.417-2.108,10.198-4.49,13.54
				c-4.048-0.345-5.202-7.023-5.821-7.788c-2.079-2.568-13.883,14.643-21.669-1.67c-2.831-5.931-4.133-23.422-4.133-23.422
				c-0.002,0-0.131-1.296-0.137-1.342c-0.344-2.594-0.313-7.719-0.188-9.031c0.003-0.027-0.057-0.896,0.03-0.896
				C217.938,132.454,219.374,114.23,231.767,109.638C231.811,109.621,230.591,109.938,231.767,109.638z"/>
		</g>
		<path d="M262.896,111.708c0.297,0.24,0.635,0.365,1.012,0.375c0.072,0.013,0.096-0.051,0.064-0.191
			c2.209,2.305,10.861,16.459,12.502,17.114c0.254,0.101,0.811-12.841,1.414-13.972c1.154,0.268,6.846,0.906,7.145,2.128
			c0.051-0.069,0.078-0.103,0.131-0.171c9.922,5.211,5.352,41.72,3.201,50.881c-1.111,7.811-0.594,22.237-10.752,23.104
			c-0.375,0.032-7.988,0.49-8.406-0.572c-0.256,0.055-0.383,0.081-0.639,0.137c0.033-0.099,0.051-0.146,0.086-0.246
			c-0.822,0.612-6.332-0.522-7.086-0.97c-0.027,0.085-0.041,0.128-0.066,0.212c-2.143-4.59,0.381-8.932,1.789-14.569
			c3.348-13.401,2.635-26.128-1.229-39.347c-0.754-2.575-8.148-25.024-8.82-25.106C256.345,110.892,259.661,112.359,262.896,111.708
			C263.024,111.865,262.677,111.751,262.896,111.708z"/>
	</g>
	<g>
		<path d="M41.603,206.851c18.924,2.875,62.29-3.544,75.381,14.356c12.61,17.242-7.434,40.959-26.959,31.328
			c-1.207-0.122-6.16-1.566-6.531-0.39c0.06-0.188,20.455,24.445,10.599,26.896c-1.526,0.38-4.462,1.204-4.456,1.214
			c-3.898-3.312-8.406-8.163-12.703-11.139c-6.223-4.313-18.015-19.578-21.708-24.367c-8.902-11.546-15.097-24.095-21.517-37.339
			C32.149,204.194,43.273,207.134,41.603,206.851C55.276,208.927,39.043,206.416,41.603,206.851z M78.204,230.664
			c-1.347-0.074-2.693-0.063-4.041,0.036c3.447,6.808,13.468,9.779,18.336,3.039C93.62,232.161,79.929,229.758,78.204,230.664
			C77.598,230.647,78.332,230.596,78.204,230.664z"/>
		<path d="M143.479,201.585c2.353-0.451,28.948-4.055,29.143-5.543c6.82-1.252,16.43,63.85,16.828,68.02
			c1.922,20.153,1.412,21.824-17.752,25.188c-6.451,3.677-7.094-13.438-7.49-15.445c-6.783,0.924-13.295,1.095-20.296,1.285
			c-6.991,0.192,3.151,20.384-18.497,13.267C120.489,286.737,131.779,203.808,143.479,201.585
			C150.515,200.239,142.529,201.765,143.479,201.585z M152.937,233.33c-0.436,1.867-4.603,11.035-3.474,12.35
			c0.508,0.591,6.92-1.21,7.808-1.341C157.269,244.516,154.771,233.031,152.937,233.33
			C152.427,235.512,153.028,233.315,152.937,233.33z"/>
		<path d="M220.692,191.722c0.902,0.854,5.9,0.146,6.771-0.021c4.893,0.046,12.273,21.556,12.176,25.641
			c0.188-7.854,8.289-23.32,14.467-22.582c-1.234-0.147,28.084,4.496,26.879,6.585c-10.766,18.681-20.236,34.288-34.742,50.726
			c-7.791,8.83-18.805,14.364-27.232,21.848c0.055-0.136-0.824,0.66-0.77,0.523c-2.25,1.87-10.52,6.954-10.773,6.601
			c-2.379-3.311-1.318-8.385,0.764-16.29c4.863-18.471,6.854-30.513-3.967-46.925c-1.605-2.437-18.266-24.239-12.033-24.736
			C201.54,192.35,211.478,193.329,220.692,191.722C220.854,191.875,220.118,191.822,220.692,191.722z"/>
	</g>
</g>
</svg>
