<svg width="480" height="480" xmlns="http://www.w3.org/2000/svg"><g fill="currentColor"><path d="M153.517 241.755c-1.368.165-2.729.334-4.057.582.985.724 1.999 1.782 3.09 3.187 10.215 13.172 20.418 26.353 30.549 39.593 14.434 18.866 26.33 34.548 40.784 53.399.797 1.041 2.086 2.552 3.114 3.755.439.514-.073 1.398.21 1.738.901 1.079 1.626-7.2.46-8.881-5.38-7.756-8.66-12.02-14.107-19.732-8.396-11.89-16.632-23.895-25.004-35.804-5.723-8.143-11.69-16.117-17.301-24.335-2.786-4.08-5.762-8.025-8.206-12.308l-.129-.049c-3.304-.816-5.864-1.57-9.403-1.145"/><path d="M135.03 252.123c-.03.076-.06.152-.087.226l.086-.226zm34.787 76.2c-3.821-10.535-8.972-20.983-14.748-30.587-5.464-9.084-13.066-16.652-18.886-25.49-3.529-5.36-3.793-12.773-1.531-19.127l-.001.001.01-.027.078-.21-.078.21c.024-.07.052-.14.078-.21.068-.182.137-.36.204-.534l.086-.226a19 19 0 01.359-.838c.001-.008.005-.014.01-.022.06-.136.12-.267.191-.418.044-.09.083-.165.126-.25l.152-.31c.121-.237.233-.449.338-.644.011-.018.019-.036.03-.053a22.248 22.248 0 01.417-.73l.043-.07.068-.11-.068.11.068-.11c.349-.575.657-1.033.973-1.457.032-.041.061-.084.095-.125a4.72 4.72 0 01.105-.137 19.708 19.708 0 011.25-1.5l.091-.106c1.47-1.701 3.09-2.806 4.24-3.413.091-.047.18-.095.263-.136.2-.099.387-.185.547-.25a.174.174 0 01-.059.01c-.448.004-2.47-.923-3.703-2.419-1.124-1.365-1.454-2.656-1.914-4.28-.38-1.341-1.299-2.113-2.642-2.101-.122.001-.249.01-.38.024.006 0 .267-.33.304-.367.291-.298.596-.584.902-.868 1.009-.938 1.977-1.801 3.24-2.389a11.408 11.408 0 016.977-.825c2.652.533 4.625 2.089 6.284 4.169 1.47 1.841 2.756 3.688 4.436 5.365 1.255 1.255 5.277 5.076 5.277 5.076-1.813-3.177-3.332-6.54-4.262-10.277-1.151-4.63-3.679-8.936-7.12-12.228-4.4-4.21-10.06-7.119-16.056-8.203a27.072 27.072 0 00-5.04-.424c-7.91.076-15.682 3.556-21.138 9.346-.018.017-.04.033-.058.05-3.903 3.72-10.083 6.284-10.083 6.284s1.137.676 2.345 1.958c-2.583.896-4.762 1.044-5.806 1.053a8.304 8.304 0 01-.66-.015s2.326 1.698 3.649 5.022c-1.341.292-2.2.32-2.2.32s4.687 6.189 4.893 10.672v.08c.005.12.007.24.005.357-.008.348.002.647.026.91.272 9.254 1.57 17.945 7.316 25.343 3.292 4.24 7.012 8.123 10.74 11.978 15.357 15.88 30.583 35.516 31.263 58.69.106 3.65-1.371 7.867-4.006 10.427-1.846 1.796-4.313 2.847-6.83 3.39-1.28.275-2.623.478-3.99.615a157.611 157.611 0 005.238 4.407c3.742-.832 6.836-2.41 9.192-4.7 3.537-3.44 5.725-9.05 5.572-14.292-.339-11.53-3.888-22.839-10.851-34.57-5.196-8.755-12.144-17.515-21.867-27.567-3.89-4.023-7.357-7.668-10.373-11.552-5.09-6.559-6.002-14.603-6.229-22.32l-.003-.154-.015-.153a3.211 3.211 0 01-.008-.333c.005-.2.003-.404-.003-.614l-.002-.044-.001-.068-.003-.068c-.104-2.262-.888-4.634-1.86-6.761l1.066-.232-2.035-5.112 7.036-2.444-2.837-3.008c1.631-1.037 3.33-2.273 4.815-3.675.029-.026.059-.053.087-.081l.127-.116.118-.125c4.497-4.774 11.01-7.659 17.42-7.72a21.851 21.851 0 014.07.342c4.414.798 10.446 2.307 14.596 6.734-.706-.086-4.476-.828-5.194-.822-2.36.023-4.109.247-6.204 1.22-4.094 1.907-6.483 5.374-8.993 8.946.394-.478 3.167.901 4.772 2.858 1.605 1.96.956 3.392 2.16 5.172-.157.17-.313.344-.47.523l-.042.05a24.991 24.991 0 00-1.501 1.806l-.108.14-.02.025-.019.026-.021.029-.062.083a23.357 23.357 0 00-1.24 1.849l-.015.025-.072.118.019-.03-.07.112a28.56 28.56 0 00-.428.747l-.023.04-.098.177a31.622 31.622 0 00-.588 1.14l-.033.067-.112.227c-.08.164-.147.313-.214.461l-.021.048-.008.016-.01.027c-.169.369-.316.714-.451 1.056-.028.065-.052.132-.078.198l-.018.048-.007.016-.007.016-.23.607-.013.035c-.022.058-.045.117-.065.176-2.75 7.537-2.417 16.997 2.056 23.79 2.782 4.226 5.928 8.144 8.97 11.934 3.603 4.488 7.006 8.728 9.803 13.377 5.85 9.725 10.801 19.99 14.319 29.685 5.514 15.2 6.778 28.097 3.758 38.333-.973 3.293-2.372 6.58-4.178 9.843a155.66 155.66 0 004.585 2.407c1.89-3.43 3.45-7.032 4.557-10.784 3.988-13.507.83-28.65-3.856-41.565"/><path d="M197.636 307.165c-6.259-8.133-12.525-16.26-18.795-24.384-4.541-5.888-9.085-11.774-13.626-17.662a1308.415 1308.415 0 00-6.679-8.556c-2.295-2.92-4.279-5.995-6.855-8.696-1.546-1.623-4.082-4.51-6.597-3.195-3.632 1.899-6.152 5.739-7.496 9.51-1.57 4.41-1.876 9.123.007 13.378 2.51 5.673 7.165 10.78 10.94 15.692 7.974 10.38 13.194 18.657 19.225 31.064 5.472 11.257 17.892 21.513 28.299 23.623 5.292 1.073 10.792 1.856 16.242 2.401 2.13.212 4.251.39 6.348.532.571.039 4.428.617 4.764-.027-.878-1.424-3.524-4.521-4.53-5.849a4927.985 4927.985 0 00-21.247-27.83" fill-rule="evenodd"/><path d="M149.944 237.072c-.065-1.447-.348-3.484-1.347-4.604-1.662-1.863-4.185-2.325-5.633-1.033-1.448 1.292-1.919 3.346.153 4.945 1.664 1.283 3.158.715 5.439 1.645.675.276 1.421-.222 1.388-.953"/><path d="M240 63.104c-23.875 0-47.043 4.679-68.86 13.908-21.067 8.91-39.983 21.663-56.224 37.904-16.24 16.241-28.994 35.157-37.903 56.224-9.23 21.817-13.908 44.985-13.908 68.86s4.678 47.043 13.908 68.86c8.91 21.067 21.662 39.983 37.903 56.224 16.24 16.241 35.157 28.993 56.224 37.904 21.817 9.228 44.985 13.908 68.86 13.908s47.043-4.68 68.86-13.908c21.067-8.91 39.983-21.663 56.224-37.904 16.241-16.241 28.993-35.157 37.904-56.224 9.23-21.817 13.907-44.985 13.907-68.86s-4.678-47.043-13.907-68.86c-8.91-21.067-21.663-39.983-37.904-56.224-16.241-16.241-35.157-28.995-56.224-37.904-21.817-9.23-44.985-13.908-68.86-13.908zm0 13.781c90.085 0 163.113 73.03 163.113 163.115 0 90.085-73.028 163.115-163.113 163.115S76.886 330.085 76.886 240c0-90.085 73.029-163.115 163.114-163.115"/><path d="M315.944 197.779a78.704 78.704 0 01-6.677 6.401l-4.394-5.907zm-133.14 3.396l-7.09 10.326c-4.829-3.517-7.967-7.426-9.851-10.326zm100.008-1.914l9.541 15.578c-3.657 1.854-7.677 3.214-11.96 4.046l-10.738-19.036zm-19.276 19.986l-5.964-18.858 6.024-.268 11.016 19.542a48.564 48.564 0 01-11.076-.416zm-27.527-28.332c0-.296 0-.431.619-.431.627 0 .627.135.627.43V294.88c0 .285-.03.321-.171.37a1.35 1.35 0 01-.448.062c-.24 0-.421-.035-.527-.099-.074-.044-.1-.099-.1-.333zm-23.43 10.26l-10.811 18.617a49.679 49.679 0 01-9.423-1.077l11.41-17.54zm58.388-6.808l14.39-18.096a64.441 64.441 0 017.972 2.336l-10.51 15.23zm-37.136-68.828c4.217.609 8.61-.482 13.165-3.254-1.585 2.806-3.827 5.603-6.68 8.335-1.847 1.767-3.92 2.584-6.305 2.501-5.908-.21-12.066-5.762-14.059-7.724.14-1.196.283-2.222.445-3.196.066-.305.444-1.568 1.106-2.158a10.83 10.83 0 011.346-.982c1.84 2.216 5.518 5.686 10.982 6.478zm17.797-13.391a.516.516 0 00-.184.073l-.06.015a1.34 1.34 0 00-.228.07.526.526 0 00-.147.089.417.417 0 00-.074.046 2.579 2.579 0 00-.434.275.773.773 0 00-.184.13 40.762 40.762 0 01-3.082 2.68c-2.016-4.663-5.583-7.22-10.102-7.22-5.762 0-9.35 2.651-11.44 5.12a16.76 16.76 0 00-1.26-2.378c2.068-2.504 7.635-7.656 18.367-7.656 9.244 0 14.895 4.648 17.724 7.916-5.037.02-8.733.805-8.896.84zm29.135 29.545c-2.79-14.541-12.643-20.83-14.995-22.144a10.52 10.52 0 00-1.733-2.673c5.521.45 9.896 2.028 13.016 4.699 4.156 3.558 6.452 8.228 6.302 12.81-.086 2.631-.958 5.086-2.59 7.308zm-22.987 53.263l9.253-19.879c1.371-.265 2.61-.396 3.78-.396 2.794 0 5.635.182 8.463.539l-15.484 19.468zm-20.643-81.232c2.55 0 4.395 1.616 5.488 4.807-2.845 1.438-5.525 1.996-7.973 1.652-1.925-.271-3.756-1.092-5.447-2.443 1.123-1.643 3.514-4.016 7.932-4.016zm24.143 11.361c-.421 4.896-6.117 16.048-15.97 20.835-7.505 3.65-15.685 2.77-24.314-2.613-.935-3.422-1.419-7.127-1.441-11.031 3.61 2.88 8.793 6.06 14.254 6.26 3.892.127 7.35-1.219 10.256-4.003 7.427-7.108 9.759-13.372 10.488-16.732 1.771.351 3.996 1.086 5.394 2.626 1.064 1.173 1.501 2.697 1.333 4.658zm-13.601 25.708c11.206-5.446 17.67-17.198 18.833-24.058 3.86 3.378 9.596 10.498 9.596 22.961 0 9.47-2.933 16.315-8.473 19.796-.99.133-2.054.344-3.25.644l-.06.015a1.29 1.29 0 00-.128.036 39.938 39.938 0 00-5.617 1.922l-.656-.153a.676.676 0 00-.144-.016h-.008a.806.806 0 00-.157-.037c-.2-.023-20.064-2.446-30.94-16.895a33.918 33.918 0 01-2.587-4.003c8.225 3.446 16.33 3.315 23.59-.212zm33.82-1.786a10.333 10.333 0 01-.015-.252 22.576 22.576 0 003.287-3.384c2.154 2.133 5.341 6.232 5.341 11.824 0 5.228-3.104 10.29-7.917 12.944a73.397 73.397 0 00-6.498-.707c3.867-4.828 5.828-11.461 5.828-19.736 0-.239-.013-.464-.026-.69zm-67.572-39.055a8.506 8.506 0 014.986 2.752.793.793 0 00.086.095c.426.486.808 1.013 1.134 1.569-.877.548-1.624 1.093-2.224 1.624-1.302 1.163-2.048 2.716-2.454 3.872-1.823 1.084-6.103 3.93-9.946 8.747a46.289 46.289 0 00-9.253 3.013c-.061-3.73.645-10.168 5.304-15.899 3.532-4.344 8.155-6.504 12.367-5.773zM199.4 140.435c-2.645 9.564-.817 20.208 5.433 31.648a58.131 58.131 0 00-3.898-.135c-3.455 0-6.966.5-10.44 1.484-4.095-5.348-6.168-11.201-6.168-17.4 0-7.763 3.776-13.837 11.22-18.059a35.833 35.833 0 015.742-2.588 31.417 31.417 0 00-1.889 5.05zm1.535 36.932c1.878 0 3.742.1 5.689.305l6.764 18.085h-8.905l-3.899-18.385c.117-.003.233-.005.35-.005zm-1.99 18.39h-9.664l-8.974-11.633c4.942-3.207 9.934-5.295 14.856-6.212zm38.635-10.677a5.844 5.844 0 00-.948-.084c-.267 0-.55.024-.85.07a6.945 6.945 0 00-.98.193c-2.143-2.518-9.313-9.676-23.202-12.312-7.133-11.498-9.487-21.931-6.992-31.015 1.868-6.804 6.14-11.6 9.7-14.583-.503 6.49.067 12.586 1.695 18.138.028.149.074.277.116.392l.013.034c1.4 4.588 3.497 8.755 6.235 12.384 8.408 11.147 21.056 15.876 28.542 17.788-6.213 3.791-10.989 7.992-12.324 9.207a6.999 6.999 0 00-1.005-.212zm5.093 5.013v-1.185c2.292-2.02 9.398-7.973 17.3-11.507l-8.298 17.83-8.948.398v-4.714c0-.256-.015-.518-.054-.822zm.054 10.96l9.242-.412 5.442 17.208a38.833 38.833 0 01-6.41-2.601l-.017-.015a1.717 1.717 0 00-.184-.134c-5.165-3.14-7.436-7.051-8.073-8.326zm-60.287-5.296h-15.475c2.075-2.332 5.132-5.462 8.939-8.469zm14.844 5.418l-10.432 16.037a46.444 46.444 0 01-5.195-2.104s-.746-.393-1.354-.721l9.074-13.212zm33.305-12.516v1.433a7.019 7.019 0 00-.053.823v4.842h-11.364l-6.368-17.026c10.67 2.572 16.176 8.065 17.785 9.928zm-.053 12.516v5.609c-.375.768-1.197 2.22-2.708 3.905-.236.264-1.085 1.146-1.267 1.295-4.88 4.019-11.201 6.593-18.33 7.477l10.618-18.286zm59.075-7.642l8.844-12.817a66.892 66.892 0 015.006 2.55l-5.449 9.891zm8.725 5.034l6.685 8.982a70.332 70.332 0 01-7.744 4.955l-8.282-13.52zm17.581-6.211l-11.564.517 3.714-6.738a65.881 65.881 0 017.85 6.221zm8.779 2.316a.691.691 0 00-.035-.176 2.693 2.693 0 00-.19-.741 2.283 2.283 0 00-.166-.308.442.442 0 01-.03-.066c-.032-.065-.075-.154-.146-.246-.502-.646-12.418-15.69-34.892-21.547 4.007-3.867 6.288-9.065 6.288-14.393 0-8.554-5.392-14.352-7.99-16.65a18.078 18.078 0 001.232-5.981c.205-6.236-2.782-12.47-8.194-17.105-3.354-2.872-7.746-4.764-13.056-5.627-.562-1.05-7.788-13.857-24.717-13.857-12.125 0-18.967 5.562-22.104 9.122a13.859 13.859 0 00-5.853-2.484c-6.164-1.07-12.704 1.807-17.49 7.695-6.948 8.545-6.8 18.137-6.35 22.164-8.024 5.228-12.094 12.48-12.094 21.56 0 6.9 2.099 13.396 6.24 19.313-15.53 6.666-25.664 20.955-26.093 21.567a2.28 2.28 0 00-.195.353l-.032.066a1.136 1.136 0 00-.06.121c-.108.265-.169.56-.185.872l-.019.141a.55.55 0 00.022.154c.017.324.074.608.193.902.192.468 4.83 11.552 17.721 18.967.051.037.102.073.16.107.246.137.499.269.75.401l.265.139c15.885 8.345 35.632 8.068 49.136-.691.535-.348 3.025-2.11 3.63-2.695l.053-.044.041-.036v79.21c0 3.877 3.07 5.905 6.1 5.905 3.028 0 6.09-2.028 6.09-5.905v-79.211a29.398 29.398 0 004.385 3.507c.185.174.37.309.576.42 13.004 7.052 30.701 7.442 45.097 1 .173-.035.337-.086.488-.148a66.578 66.578 0 004.29-1.982.745.745 0 00.15-.069l.048-.032c16.648-8.39 26.044-21.445 26.436-21.996.084-.119.137-.239.177-.335l.07-.146c.038-.071.074-.143.101-.22.1-.294.15-.59.15-.895l.006-.025-.004-.075"/><path d="M266.943 340.343c5.449-.546 10.949-1.328 16.241-2.4 10.408-2.11 22.827-12.366 28.3-23.624 6.03-12.406 11.25-20.683 19.225-31.063 3.775-4.913 8.43-10.02 10.94-15.693 1.883-4.255 1.575-8.968.007-13.376-1.344-3.774-3.865-7.612-7.495-9.511-2.516-1.316-5.052 1.57-6.6 3.193-2.574 2.702-4.56 5.778-6.853 8.698-2.228 2.836-4.47 5.69-6.679 8.554-4.541 5.888-9.085 11.775-13.628 17.663a24673.162 24673.162 0 00-18.793 24.384 4927.985 4927.985 0 00-21.247 27.83c-1.006 1.329-3.652 4.426-4.53 5.85.336.644 4.194.065 4.764.027 2.097-.143 4.218-.32 6.348-.532M329.3 237.075c-.033.73.712 1.229 1.388.953 2.281-.93 3.773-.363 5.437-1.645 2.074-1.598 1.602-3.652.154-4.946-1.447-1.292-3.97-.829-5.632 1.034-.999 1.12-1.282 3.157-1.347 4.604" fill-rule="evenodd"/><path d="M329.783 242.34c-1.328-.248-2.688-.417-4.056-.581-3.54-.426-6.1.328-9.403 1.142l-.13.051c-2.443 4.283-5.418 8.228-8.205 12.308-5.612 8.217-11.58 16.192-17.302 24.335-8.371 11.909-16.606 23.914-25.004 35.805-5.447 7.71-8.727 11.975-14.107 19.73-1.167 1.683-.44 9.96.461 8.882.283-.34-.229-1.224.21-1.739 1.028-1.201 2.317-2.713 3.114-3.753 14.454-18.852 26.35-34.536 40.784-53.4 10.131-13.239 20.335-26.42 30.55-39.593 1.09-1.406 2.102-2.463 3.088-3.187"/><path d="M384.072 230.496s-.236.019-.66.015c-1.043-.01-3.223-.156-5.805-1.054 1.208-1.281 2.344-1.956 2.344-1.956s-6.179-2.564-10.083-6.285l-.057-.05c-5.456-5.789-13.228-9.27-21.139-9.345a26.866 26.866 0 00-5.04.424c-5.993 1.083-11.655 3.992-16.055 8.202-3.441 3.293-5.969 7.597-7.121 12.228-.93 3.738-2.45 7.1-4.261 10.277 0 0 4.022-3.821 5.277-5.075 1.68-1.677 2.967-3.525 4.435-5.366 1.658-2.08 3.633-3.638 6.285-4.17a11.407 11.407 0 016.976.825c1.264.589 2.23 1.451 3.24 2.39.307.284.61.57.903.868.036.037.298.367.302.367a4.144 4.144 0 00-.38-.023c-1.342-.013-2.26.759-2.64 2.1-.46 1.625-.79 2.915-1.916 4.281-1.232 1.495-3.252 2.422-3.7 2.418a.145.145 0 01-.06-.01c.159.066.347.151.546.251.088.041.174.088.262.135 1.152.608 2.772 1.712 4.242 3.413.033.037.06.07.09.107a19.703 19.703 0 011.251 1.498l-.016-.02c.005.008.012.015.016.02.035.046.072.092.105.138l.094.126c.317.424.624.882.974 1.456l.068.11c.014.025.027.045.043.07a26.202 26.202 0 01.447.784 23.484 23.484 0 01.49.952l.126.252c.07.15.129.282.19.416l.011.023c.136.297.253.576.359.839l.086.225c.067.173.136.353.203.533a6.048 6.048 0 01.079.21c.004.01.008.018.01.028h-.001c2.261 6.354 1.997 13.766-1.532 19.125-5.819 8.839-13.421 16.407-18.887 25.49-5.776 9.605-10.925 20.053-14.746 30.589-4.687 12.914-7.844 28.057-3.858 41.564 1.139 3.858 2.758 7.558 4.722 11.076a158.36 158.36 0 004.598-2.383c-.036-.064-.07-.128-.108-.19-.08-.146-.166-.291-.245-.437-.003-.002-.005-.008-.008-.012a.067.067 0 00-.007-.013c-.013-.024-.024-.05-.037-.073a50.92 50.92 0 01-2.385-5.018 61.614 61.614 0 01-1.016-2.704c-.035-.1-.071-.2-.104-.3a2.778 2.778 0 01-.046-.128l-.002-.009a52.125 52.125 0 01-1.01-3.693l-.03-.132-.003-.02-.003-.012c-.028-.126-.052-.25-.076-.378-.142-.694-.268-1.4-.376-2.117l-.009-.05-.004-.025a.655.655 0 00-.004-.022c-.01-.076-.025-.151-.036-.227l-.004-.032-.005-.036c-.006-.037-.01-.077-.015-.115-.048-.352-.09-.706-.13-1.064l-.02-.153c0-.014-.002-.028-.003-.041l-.006-.05-.025-.273a47.466 47.466 0 01-.223-4.213c0-.045-.002-.09-.004-.137 0-.005.002-.008 0-.013l.002-.014c-.002-.042.001-.085.001-.124-.008-2.95.239-6.051.74-9.298l.025-.156a67.98 67.98 0 01.316-1.872v-.004l.004-.024.063-.314c.316-1.682.699-3.4 1.147-5.156l.034-.139.003-.012c0-.004.001-.01.003-.013.013-.048.028-.098.04-.146a98.821 98.821 0 011.462-5.08c.003-.005.004-.01.006-.016l.004-.014.048-.156.006-.018.006-.02c.029-.088.061-.178.089-.266.228-.707.464-1.418.712-2.135.027-.077.05-.155.077-.233a.23.23 0 01.01-.028.025.025 0 00.002-.01c.074-.206.146-.414.218-.621.037-.087.068-.175.093-.267.077-.222.152-.444.233-.669.067-.185.138-.37.207-.555a.168.168 0 00.004-.013c0-.004.003-.008.004-.012.09-.244.184-.49.276-.735l.281-.75c.139-.363.28-.726.422-1.09.097-.249.193-.497.293-.746.047-.119.09-.238.139-.356.001-.004.002-.01.005-.014l.005-.012c.087-.222.182-.445.271-.666.117-.292.236-.583.356-.875.052-.127.101-.253.155-.38a.37.37 0 01.017-.044c.059-.143.123-.287.183-.428.224-.536.452-1.072.682-1.608l.251-.59a.082.082 0 01.007-.015l.008-.019.077-.173.007-.014.005-.013.023-.05a159.663 159.663 0 011.528-3.38l.005-.013.005-.013.006-.012a179.803 179.803 0 012.161-4.481l.06-.122.008-.017.008-.017c.024-.046.045-.092.07-.139l.006-.012.007-.015c.057-.113.117-.226.174-.34.48-.948.966-1.896 1.464-2.842l.104-.2.006-.014.008-.012c.216-.409.437-.82.658-1.228.066-.122.131-.245.198-.366.056-.104.11-.21.168-.314l.013-.028.01-.017c.138-.252.28-.503.418-.755.183-.334.367-.668.553-1 .068-.124.135-.248.206-.37a.146.146 0 01.01-.02l.011-.019.135-.232a190.137 190.137 0 012.218-3.832l.148-.256.011-.017.01-.018c.086-.142.169-.285.254-.426a62.154 62.154 0 011.127-1.802l.013-.02c.21-.324.43-.644.647-.965.158-.236.313-.473.473-.708l.076-.113.016-.022c.003-.004.005-.009.01-.013.06-.088.126-.173.187-.261a96.985 96.985 0 011.546-2.155c.053-.07.102-.144.154-.216l.011-.012.01-.013c.047-.064.097-.128.145-.192.734-.987 1.492-1.97 2.264-2.955.054-.07.105-.14.161-.21.003-.005.005-.009.01-.013l.007-.009.132-.17a.093.093 0 01.011-.013l.008-.012c.312-.394.632-.793.947-1.189l.637-.799c.19-.24.377-.476.57-.716l.009-.012.009-.012c.21-.258.415-.516.623-.776.134-.168 2.213-2.772 2.766-3.474l.012-.016a196.755 196.755 0 002.039-2.63l.01-.013c.003-.005.006-.01.01-.013l.17-.22.009-.011a120.357 120.357 0 002.336-3.193l.008-.01.006-.012c.051-.07.099-.144.148-.214l.01-.014.009-.013c.487-.693.97-1.39 1.439-2.101.112-.171.209-.352.317-.527a.1.1 0 00.01-.016l.009-.013a21.338 21.338 0 00.953-1.736l.008-.016a23.152 23.152 0 001.304-3.271l.005-.016.004-.015c.011-.036.027-.072.039-.11l.004-.016c.003-.007.004-.014.005-.019.275-.904.506-1.825.68-2.761l.002-.014.002-.02c.012-.061.019-.122.03-.184l.006-.033.004-.03a27.939 27.939 0 00.266-1.977l.002-.028c.01-.081.02-.162.027-.242a.082.082 0 00.001-.018c.002-.006.002-.013.003-.02.09-.994.128-1.996.116-2.996v-.025l-.003-.075-.001-.017v-.019a29.74 29.74 0 00-.225-3.179l-.003-.018-.001-.019a29.512 29.512 0 00-.322-2.007l-.004-.021-.001-.007a28.682 28.682 0 00-.979-3.708l-.002-.009-.004-.013c-.019-.052-.032-.106-.051-.158l-.005-.013-.006-.016c-.046-.135-.086-.273-.134-.407-.023-.06-.046-.117-.067-.176l-.013-.034c-.082-.222-.158-.418-.231-.607l-.007-.016-.006-.016-.018-.048a24.538 24.538 0 00-.528-1.256l-.012-.025-.006-.016-.022-.048c-.068-.148-.136-.298-.214-.463-.026-.05-.048-.099-.074-.145l-.005-.012c-.003-.006-.005-.012-.01-.018a.452.452 0 00-.023-.052l-.034-.065c-.053-.108-.113-.235-.177-.36a29.083 29.083 0 00-.41-.78l-.018-.03-.012-.025-.012-.021-.056-.101-.023-.042a29.544 29.544 0 00-.429-.745l-.123-.2-.016-.025a22.164 22.164 0 00-.249-.402l-.02-.03-.017-.031a22.865 22.865 0 00-.952-1.387l-.062-.082-.021-.03-.019-.025-.02-.025-.106-.14a25.574 25.574 0 00-.672-.846c-.027-.032-.051-.064-.078-.094-.018-.026-.041-.048-.062-.072-.038-.046-.078-.088-.115-.135l-.172-.196-.043-.05c-.12-.137-.237-.278-.361-.413l-.043-.05c-.156-.18-.312-.354-.468-.523a4.91 4.91 0 00.586-1.187l.004-.016.005-.014c.21-.623.299-1.226.477-1.855.01-.032.016-.061.026-.092.018-.064.04-.128.061-.192a5.441 5.441 0 01.135-.37c.048-.118.1-.237.16-.357l.014-.032c.066-.13.143-.265.227-.401.008-.015.015-.03.024-.043l.008-.013.008-.01c.021-.035.047-.07.07-.105l.007-.012.01-.013a5.586 5.586 0 01.243-.33c.031-.043.058-.086.094-.13.027-.032.059-.061.087-.095.125-.148.258-.294.397-.436.045-.045.088-.093.135-.137.174-.172.356-.336.54-.492l.06-.05c.484-.406.986-.757 1.462-1.037.02-.012.04-.026.06-.037l.012-.007.011-.008.055-.029.118-.064c.078-.043.155-.085.23-.123.041-.021.081-.038.121-.058.07-.034.14-.068.208-.098l.116-.048c.064-.026.13-.054.19-.076.037-.014.07-.024.106-.036.057-.018.116-.04.17-.054.034-.01.065-.015.097-.022.048-.012.098-.025.142-.03.036-.007.064-.006.098-.008.033-.003.07-.008.101-.008.045.001.083.01.12.02.01.002.023.001.032.005a.234.234 0 01.1.065c-.423-.602-.843-1.202-1.27-1.792l-.007-.01-.008-.014c-.014-.017-.027-.036-.04-.054l-.012-.015-.008-.012c-.778-1.075-1.578-2.115-2.448-3.077l-.01-.011a.036.036 0 01-.009-.01l-.073-.083-.01-.01a23.053 23.053 0 00-.67-.7c-.015-.016-.032-.03-.05-.048-.201-.2-.408-.394-.618-.585l-.111-.099a20.076 20.076 0 00-.633-.536c-.03-.022-.059-.046-.087-.069a14.84 14.84 0 00-.767-.57l-.009-.009-.012-.008c-.079-.054-.163-.101-.243-.154l-.018-.011-.014-.01a14.483 14.483 0 00-1.864-1.054 13.118 13.118 0 00-.614-.264l-.019-.008-.017-.008a11.733 11.733 0 00-1.918-.593c-.002-.002-.005-.003-.009-.003l-.016-.003a12.94 12.94 0 00-.84-.153l-.016-.003c-.268-.038-.541-.07-.819-.096-.025-.001-.05-.005-.076-.006-.25-.023-.509-.039-.773-.051-.05-.003-.1-.007-.152-.008-.253-.01-.517-.016-.784-.02-.05 0-.095-.003-.145-.003a2.37 2.37 0 00-.192.01c-1.032.082-4.346.732-5.003.812l.001-.002h-.004c.047-.048.096-.092.142-.14.002-.004.006-.006.009-.009a.067.067 0 00.01-.01c.075-.078.154-.15.23-.226a17.48 17.48 0 011.88-1.625l.016-.012c.243-.179.487-.351.735-.518l.017-.012a.03.03 0 00.01-.009c.005-.001.009-.004.013-.007.073-.049.144-.101.214-.148l.012-.009.014-.007a.497.497 0 01.045-.029c.11-.07.221-.136.332-.204a20.294 20.294 0 011.388-.785c.127-.066.253-.131.38-.194.175-.085.348-.166.523-.248.12-.054.24-.112.358-.165l.052-.024.012-.005.015-.006c.035-.016.072-.028.107-.044a28.9 28.9 0 012.717-1.014c.052-.016.103-.03.155-.047l.085-.025.113-.035c.058-.017.115-.033.172-.052.04-.01.08-.024.122-.036l.045-.012a42.756 42.756 0 013.853-.921c.279-.055.554-.107.822-.155.1-.019.202-.032.304-.047a25.4 25.4 0 01.756-.116l.018-.002.028-.003.027-.003c.061-.008.124-.012.185-.018.259-.031.52-.06.782-.082.082-.006.165-.009.248-.014.249-.018.498-.035.749-.044h.057l.171-.003h.049a16.453 16.453 0 011.61.024 20.79 20.79 0 011.014.076l.016.001.019.002.005.001c4.678.459 9.29 2.37 13.022 5.37l.038.03c.846.683 1.65 1.416 2.394 2.205l.118.126.126.117.088.079a27.26 27.26 0 002.16 1.822 36.676 36.676 0 00.933.686 36.192 36.192 0 001.721 1.168l-2.837 3.009 7.037 2.444-2.036 5.11 1.067.233c-.07.153-.137.31-.204.466-.063.144-.127.286-.187.431-.074.177-.144.356-.214.535l-.103.262c-.092.244-.18.488-.264.734-.005.018-.013.038-.02.057a18.736 18.736 0 00-.576 2.11c-.037.18-.076.358-.108.537-.016.09-.025.18-.039.27-.037.243-.07.486-.094.727-.02.21-.043.423-.052.632l-.003.07v.066l-.001.044c-.007.21-.01.413-.004.613.002.131 0 .247-.008.335l-.015.152-.004.153c-.176 6.006-.777 12.208-3.43 17.755l-.045.092a27.356 27.356 0 01-1.337 2.424l-.044.07c-.208.329-.421.658-.648.982l-.104.15c-.121.17-.247.337-.37.503-.087.115-.163.231-.251.344-3.016 3.884-6.482 7.53-10.372 11.552-.376.39-.743.774-1.111 1.16l-.01.011c-.7.733-1.386 1.461-2.058 2.183l-.013.013-.016.017c-.319.343-.632.683-.946 1.023-.761.825-1.502 1.643-2.224 2.453-.156.176-.318.354-.473.528-.22.25-.433.498-.65.746a183.087 183.087 0 00-1.813 2.104l-.065.076-.01.01a184.548 184.548 0 00-1.124 1.341l-.225.273a126.74 126.74 0 00-1.49 1.833 112.784 112.784 0 00-1.328 1.684c-.188.243-.376.484-.562.727-.188.244-.368.485-.552.729l-.01.013-.012.015c-.543.72-1.07 1.436-1.587 2.15l-.004.007-.02.026a114.14 114.14 0 00-1.244 1.757c-.003.003-.005.005-.007.01l-.013.017a111.873 111.873 0 00-3.715 5.696c-.197.322-.394.644-.585.966a86.167 86.167 0 00-.945 1.64c-.102.178-.208.356-.308.534a.146.146 0 01-.011.02 94.394 94.394 0 00-1.02 1.879l-.007.011-.006.012a104.285 104.285 0 00-1.651 3.287c-.101.21-.201.421-.3.632-.157.337-.315.675-.47 1.012a90.143 90.143 0 00-.69 1.58c-.177.417-.347.836-.516 1.253-.087.215-.175.431-.26.646a70.86 70.86 0 00-.733 1.945c-.167.459-.328.917-.484 1.376l-.155.465c-.063.199-.063.199 0 0-.064.198-.132.396-.196.594-.003.005-.005.016-.008.022l-.008.023v.001c-.076.243-.233.746-.297.956l.002.002-.045.138-.196.664a74.3 74.3 0 00-.679 2.495l-.002.012a65.654 65.654 0 00-.692 3.117c0 .006-.002.011-.003.016l-.004.02-.073.355c-.072.377-.147.755-.212 1.132-.039.235-.074.47-.111.705-.001.006-.001.011-.003.015l-.002.016a65.131 65.131 0 00-.486 3.669c-.008.07-.012.139-.018.208a61.624 61.624 0 00-.262 4.119c-.002.105.002.212 0 .317 0 .251-.001.5.007.751v.035l.001.052.011.24c.02.399.052.797.096 1.196.008.067.013.133.02.2.053.44.121.881.205 1.32.019.105.044.21.066.317.05.247.104.492.164.736.021.092.046.183.069.275.065.252.135.504.21.754a21.465 21.465 0 00.285.887c.044.127.09.25.136.376a16.636 16.636 0 00.456 1.137l.07.171a21.895 21.895 0 00.986 1.91c.024.04.049.078.072.12.15.252.305.501.465.744.01.013.017.025.027.037a17.024 17.024 0 001.157 1.551l.005.01.164.19a14.945 14.945 0 001.822 1.793c.108.09.224.17.334.257.219.172.434.346.662.508l.092.062c.088.061.182.117.27.177a17.728 17.728 0 002.308 1.307c.119.056.238.112.358.165.21.095.421.19.637.277.148.06.301.116.45.172.18.068.355.139.537.203l.014.005.014.004a23.23 23.23 0 002.598.735c.052.012.1.027.152.037.146.032.3.053.446.084a156.262 156.262 0 005.325-4.473 36.678 36.678 0 01-4.679-.672c-2.517-.543-4.985-1.593-6.83-3.39-2.635-2.56-4.112-6.775-4.006-10.426.679-23.173 15.904-42.81 31.263-58.69 3.728-3.855 7.448-7.738 10.74-11.977 5.745-7.4 7.044-16.09 7.316-25.344.023-.264.033-.562.025-.91-.002-.118 0-.238.004-.356l.002-.08c.206-4.483 4.893-10.674 4.893-10.674s-.859-.026-2.2-.32c1.323-3.324 3.648-5.021 3.648-5.021"/></g><path d="M313.335 375.058c-3.264-7.163-4.3-12.584-3.97-20.775.478-11.897 4.383-24.67 12.536-41.005 5.208-10.435 8.979-16.425 15.404-24.467 6.206-7.768 10.466-13.688 11.68-16.232 1.79-3.749 2.407-7.31 2.18-12.571-.278-6.455-2.115-11.722-5.784-16.581l-1.535-2.034.622-2.142c.681-2.342 3.165-5.075 5.04-5.546.548-.137.996-.331.996-.432 0-.1-.771-1.175-1.715-2.39-4.355-5.608-7.751-7.623-12.88-7.642-1.713-.006-3.64.127-4.282.296l-1.168.307 1.168-.976c3.359-2.808 9.833-5.142 15.415-5.558 5.884-.44 12.934 2.15 17.597 6.464 1.324 1.226 3.233 2.849 4.243 3.608l1.834 1.38-1.35 1.578-1.35 1.577 3.213 1.055c1.767.58 3.346 1.174 3.509 1.32.162.147-.128 1.307-.646 2.578-.608 1.495-.797 2.4-.536 2.562.269.166.182.885-.258 2.142-.398 1.136-.809 4.131-1.03 7.503-.488 7.467-1.475 12.116-3.416 16.096-1.965 4.028-4.182 6.787-12.894 16.042-13.67 14.525-20.67 23.986-25.922 35.037-3.886 8.177-5.991 15.598-6.771 23.867-.698 7.403.683 12.626 4.557 17.23 1.388 1.65 5.092 4.032 7.527 4.84l1.921.639-2.822 2.165c-1.552 1.19-4.398 3.68-6.325 5.531-3.38 3.249-3.677 3.437-8.496 5.375l-4.994 2.009z" fill="rgba(0, 0, 0, 0.5)" fill-opacity=".575"/><path d="M72.45 372.941c-.648-.798-.572-1.522.227-2.17l4.47-3.626c.759-.616 1.522-.573 2.169.226l3.627 4.472c.616.757.533 1.553-.226 2.167l-4.472 3.629c-.798.647-1.553.532-2.169-.227l-3.626-4.47m-6.586-33.927c-1.219-2.146-2.186-3.015-4.869-1.491l-9.831 5.59c-2.771 1.574-2.43 2.8-1.21 4.945l1.371 2.413c.483.85 1.21 1.087 2.103.579l13.229-7.519c.849-.484 1.061-1.255.58-2.104zm-23.522 13.548c-4.776-8.403-2.953-13.104 4.376-17.271l9.788-5.563c7.33-4.166 12.345-3.352 17.121 5.05l5.665 9.966c.483.85.271 1.622-.578 2.103l-28.558 16.235c-.895.508-1.596.314-2.149-.554l-5.665-9.966M24.018 311.89c-.37-.96-.076-1.625.883-1.995l5.37-2.075c.912-.352 1.624-.076 1.995.884l4.482 11.604c.351.91 1.035 1.253 1.994.883l1.535-.592c.91-.352 1.234-1.084.882-1.995l-2.87-7.432c-.37-.96-.076-1.625.882-1.995l5.371-2.074c.912-.352 1.624-.076 1.995.882l2.87 7.434c.351.91 1.035 1.253 1.995.882l1.535-.592c.91-.352 1.234-1.084.883-1.994l-4.484-11.606c-.37-.958-.075-1.624.883-1.993l5.372-2.075c.959-.37 1.625-.076 1.994.883l7.779 20.141c.352.911.027 1.642-.883 1.994l-30.69 11.853c-.96.37-1.643.028-1.995-.883l-7.778-20.14m-6.065-23.139c-.172-.907.237-1.509 1.057-1.874l14.015-6.377c.488-.198.41-.602-.114-.606l-15.38-.796c-.896-.038-1.497-.446-1.67-1.357l-1.986-10.453c-.19-1.011.218-1.612 1.229-1.804l32.324-6.139c.96-.183 1.612.217 1.803 1.227l1.074 5.657c.182.96-.268 1.62-1.227 1.803l-19.9 3.78c-.355.066-.318.53.056.564l21.082 1.072c.897.04 1.457.509 1.629 1.417l.634 3.333c.172.91-.177 1.552-.998 1.918L32.36 288.84c-.335.168-.198.612.156.546l19.9-3.78c.96-.182 1.61.217 1.802 1.228l1.076 5.656c.19 1.01-.269 1.621-1.228 1.804l-32.324 6.138c-1.01.192-1.612-.217-1.804-1.228l-1.985-10.454m9.2-48.96c-3.958.065-6.37.36-6.309 4.165.063 3.804 2.484 4.021 6.442 3.957l7.4-.121c3.96-.064 6.37-.36 6.31-4.164-.063-3.804-2.482-4.022-6.44-3.958zm9.983-9.006c3.392-.056 12.503.516 12.7 12.699.198 12.182-8.888 13.05-12.28 13.106l-12.852.208c-3.392.056-12.501-.516-12.7-12.698-.199-12.183 8.887-13.051 12.28-13.106l12.852-.209m-12.425-6.3c-3.364-.441-12.294-2.337-10.709-14.417 1.425-10.859 8.933-11.584 12.885-11.274.72.043 1.222.576 1.282 1.31l.531 5.825c.064 1.096-.757 1.819-1.848 1.83-2.276-.038-3.721.705-4.082 3.458-.495 3.772 1.867 4.341 5.792 4.856l7.34.963c3.926.514 6.354.573 6.849-3.199.368-2.803-.857-3.741-3.162-4.355-1.05-.293-1.605-1.196-1.217-2.182l2.03-5.592c.246-.694.867-1.079 1.625-.928 3.848.712 10.915 3.35 9.492 14.208-1.585 12.08-10.7 11.61-14.065 11.169l-12.743-1.672m5.27-43.552c-.26.888.191 1.719 1.08 1.979l3.65 1.072c.887.26 1.718-.194 1.979-1.08l.738-2.516c.695-2.368.747-3.639-2.311-4.536-3.06-.899-3.702.198-4.398 2.566zm28.044-9.017c1.485-.314 2.634.881 2.185 2.41l-1.65 5.623c-.146.493-.523.865-1.024.932l-11.42 2.219c-.178.054-.32.173-.364.321l-.58 1.973c-.26.888.193 1.718 1.081 1.979l7.793 2.288c.888.261 1.341 1.09 1.081 1.977l-1.622 5.526c-.26.888-1.091 1.341-1.978 1.08l-31.47-9.24c-.888-.262-1.341-1.091-1.081-1.979l3.173-10.803c2.577-8.78 7.369-11.23 15.458-8.854 4.588 1.346 7.461 3.422 8.567 6.588.091.24.323.362.599.336l11.252-2.376m-10.091-27.439c-2.226-1.065-3.494-1.273-4.96 1.787-1.464 3.061-.507 3.918 1.72 4.984l5.054 2.418c.882.423 1.635.156 2.057-.725l1.909-3.988c.397-.95.156-1.635-.772-2.08zm23.48 1.433c1.02.49 1.355 1.219.911 2.147l-2.486 5.195c-.422.88-1.129 1.169-2.057.725l-4.034-1.932c-.928-.444-1.613-.201-2.057.725l-1.91 3.99c-.421.88-.2 1.613.726 2.056l4.034 1.932c.928.442 1.17 1.129.727 2.056l-2.487 5.194c-.422.882-1.222 1.126-2.242.636l-19.664-9.41c-5.843-2.796-11.612-6.699-6.62-17.132 4.996-10.435 11.653-8.388 17.497-5.592l19.663 9.41M57.636 123.27c-.854-.574-1.568-.434-2.14.42l-4.016 5.973c-.545.81-1.33.964-2.14.42l-4.78-3.214c-.852-.573-.964-1.329-.419-2.14l14.685-21.845c.575-.853 1.288-.992 2.14-.419l4.78 3.212c.81.546.993 1.287.419 2.142l-4.016 5.972c-.544.812-.433 1.568.42 2.141l19.968 13.423c.81.545.992 1.288.418 2.141l-3.21 4.777c-.547.812-1.331.966-2.141.42l-19.968-13.422m10.837-31.69c.664-.785 1.39-.845 2.173-.181l25.12 21.25c.747.63.847 1.389.182 2.173l-3.652 4.317c-.63.747-1.428.812-2.174.181l-25.12-21.249c-.784-.664-.811-1.428-.181-2.173l3.652-4.318m14.603.604c-2.332-2.465-8.06-9.57.79-17.942 7.956-7.526 14.24-3.35 17.11-.615.532.488.584 1.217.168 1.824l-3.263 4.855c-.644.89-1.736.933-2.59.254-1.741-1.466-3.33-1.801-5.348.106-2.764 2.614-1.291 4.546 1.429 7.421l5.087 5.38c2.72 2.876 4.566 4.455 7.33 1.841 2.055-1.942 1.697-3.445.296-5.374-.63-.891-.492-1.942.433-2.462l5.104-3.057c.629-.383 1.353-.29 1.846.305 2.535 2.982 6.353 9.487-1.603 17.012-8.851 8.372-15.628 2.255-17.958-.21l-8.831-9.338m52.787-39.295c-.779.702-1.458.567-2.115-.238-1.385-1.63-3.527-1.912-5.604-.677-1.724 1.022-2.18 2.669-1.401 3.581 2.666 3.08 16.582-5.303 22.618 4.863.788 1.326 3.931 10.042-6.544 16.264-9.281 5.512-14.893.593-17.163-2.723-.515-.77-.406-1.492.284-2.141l4.339-4.071c.778-.703 1.501-.593 2.14.283 1.438 2.017 3.807 2.282 5.886 1.049 2.165-1.287 2.994-3.513 2.022-4.55-3.072-3.258-15.878 5.483-21.916-4.682-.83-1.3-4.682-9.596 5.22-15.476 9.105-5.408 14.744-.745 16.899 2.28.517.77.408 1.49-.283 2.141l-4.382 4.098m27.81-11.298c-1.494-3.665-2.644-5.805-6.166-4.369-3.522 1.436-2.848 3.77-1.354 7.436l2.795 6.855c1.496 3.665 2.645 5.805 6.167 4.369s2.849-3.77 1.354-7.436zm12.011 6.039c1.281 3.141 4.05 11.839-7.23 16.439-11.282 4.6-15.383-3.554-16.665-6.695l-4.85-11.9c-1.282-3.141-4.051-11.839 7.229-16.439 11.281-4.6 15.384 3.554 16.665 6.695l4.851 11.9m1.311-13.855c-.807-3.296-2.267-12.305 9.569-15.196 10.637-2.598 14.03 4.14 15.168 7.936.22.688-.095 1.347-.757 1.667l-5.239 2.603c-1 .456-1.968-.048-2.375-1.06-.786-2.136-2.002-3.215-4.698-2.556-3.696.902-3.374 3.31-2.434 7.156l1.758 7.19c.938 3.846 1.761 6.131 5.457 5.228 2.745-.67 3.177-2.152 2.916-4.522-.105-1.084.535-1.93 1.595-1.923l5.948-.13c.734-.022 1.32.418 1.452 1.18.728 3.843.822 11.387-9.812 13.985-11.836 2.89-14.695-5.778-15.499-9.074l-3.05-12.484m36.45-19.089c1.019-.133 1.596.31 1.728 1.33l4.264 32.622c.125.97-.31 1.596-1.33 1.73l-5.607.733c-.968.125-1.603-.362-1.728-1.331l-4.263-32.623c-.133-1.018.36-1.601 1.328-1.728l5.608-.733m27.009 10.842c-.041-2.466-.421-3.694-3.813-3.638-3.393.057-3.733 1.297-3.692 3.765l.095 5.603c.016.976.592 1.532 1.568 1.516l4.421-.075c1.027-.068 1.532-.59 1.516-1.618zm9.208 21.647c.019 1.131-.485 1.756-1.513 1.774l-5.757.097c-.976.016-1.551-.488-1.567-1.517l-.076-4.471c-.017-1.03-.54-1.535-1.568-1.517l-4.421.074c-.978.016-1.534.54-1.516 1.568l.076 4.472c.016 1.028-.488 1.551-1.518 1.568l-5.756.096c-.977.018-1.553-.59-1.572-1.721l-.365-21.795c-.11-6.477.803-13.382 12.37-13.577 11.565-.193 12.709 6.677 12.817 13.155l.366 21.794m15.407-32.745c1.021.127 1.468.699 1.343 1.72l-2.948 23.875c-.119.969.373 1.6 1.342 1.72l11.376 1.404c1.022.125 1.468.698 1.342 1.718l-.704 5.714c-.127 1.021-.7 1.468-1.72 1.342l-20.152-2.488c-.968-.118-1.46-.749-1.34-1.718l4.029-32.651c.127-1.02.75-1.461 1.719-1.341l5.713.705m30.2 5.352c1.001.235 1.384.853 1.15 1.855l-7.52 32.032c-.225.95-.853 1.384-1.854 1.148l-5.507-1.292c-.95-.223-1.37-.903-1.148-1.854l7.519-32.032c.236-1.001.904-1.372 1.855-1.149l5.505 1.292m22.611 20.431c-1.039-.151-1.368-.76-1.167-1.779.367-2.107-.783-3.935-3.059-4.745-1.888-.674-3.448.026-3.65 1.209-.667 4.02 14.67 9.37 10.705 20.51-.519 1.453-5.216 9.438-16.695 5.351-10.169-3.621-9.968-11.08-8.865-14.944.261-.889.887-1.266 1.828-1.149l5.903.737c1.038.152 1.414.776 1.15 1.828-.634 2.394.675 4.388 2.951 5.199 2.373.845 4.616.061 4.792-1.35.545-4.443-14.36-8.714-10.393-19.853.468-1.469 4.393-9.732 15.24-5.868 9.977 3.552 9.992 10.868 9.04 14.459-.263.89-.888 1.267-1.828 1.15l-5.952-.755m19.577 6.122c.479-.909.264-1.604-.647-2.082l-6.366-3.352c-.866-.456-1.103-1.22-.648-2.084l2.682-5.095c.479-.91 1.219-1.1 2.083-.645l23.29 12.26c.909.48 1.125 1.173.646 2.082l-2.683 5.095c-.454.865-1.173 1.125-2.082.647l-6.368-3.354c-.864-.454-1.604-.262-2.084.647l-11.207 21.288c-.456.864-1.173 1.125-2.083.647l-5.094-2.683c-.864-.455-1.102-1.219-.647-2.083l11.208-21.288m33.343 23.591c-.955-.436-1.099-1.113-.622-2.036.944-1.919.354-3.995-1.605-5.41-1.624-1.177-3.316-.942-3.843.137-1.768 3.669 11.454 13.108 4.524 22.688-.905 1.249-7.653 7.596-17.525.454-8.744-6.328-6.46-13.43-4.319-16.83.5-.779 1.207-.967 2.078-.591l5.458 2.364c.954.436 1.142 1.141.592 2.077-1.28 2.119-.584 4.4 1.375 5.816 2.04 1.478 4.415 1.355 4.977.05 1.771-4.114-11.338-12.392-4.408-21.971.862-1.279 6.946-8.11 16.275-1.36 8.577 6.208 6.54 13.235 4.621 16.415-.501.78-1.208.966-2.078.59l-5.5-2.393m32.486 33.127c2.975-2.612 4.62-4.4 2.11-7.259-2.508-2.859-4.495-1.457-7.468 1.155l-5.563 4.884c-2.975 2.612-4.621 4.398-2.11 7.258 2.51 2.858 4.495 1.456 7.469-1.154zm-1.776 13.325c-2.549 2.239-9.861 7.701-17.9-1.453-8.038-9.155-1.676-15.7.874-17.939l9.657-8.479c2.55-2.238 9.86-7.701 17.9 1.454 8.039 9.154 1.676 15.698-.873 17.937l-9.658 8.48m36.344 10.652c.56.863.408 1.573-.454 2.133l-4.83 3.135c-.82.53-1.573.408-2.133-.455l-7.05-10.866c-.534-.82-1.274-1.015-2.135-.455l-1.379.896c-.82.532-.987 1.313-.455 2.133l4.618 7.115c.56.863.408 1.573-.455 2.133l-4.83 3.135c-.818.53-1.574.408-2.133-.455L412 128.367c-.532-.82-1.27-1.015-2.133-.455l-8.798 5.71c-.818.53-1.573.407-2.132-.455l-3.302-5.09c-.532-.818-.366-1.601.454-2.132l27.598-17.909c.864-.56 1.601-.365 2.134.453l12.032 18.543m5.639 42.791c2.315-.852 3.348-1.616 2.175-4.8-1.171-3.183-2.454-3.095-4.77-2.243l-5.257 1.936c-.917.337-1.25 1.064-.915 1.98l1.528 4.148c.404.948 1.064 1.252 2.028.897zm-17.399 15.828c-1.061.39-1.817.121-2.173-.843l-1.988-5.403c-.339-.917-.05-1.625.913-1.98l4.198-1.545c.964-.356 1.269-1.015.913-1.98l-1.527-4.148c-.338-.917-1.016-1.27-1.981-.915l-4.196 1.546c-.965.354-1.625.049-1.98-.915l-1.99-5.403c-.337-.916.047-1.66 1.107-2.05l20.454-7.531c6.078-2.239 12.897-3.653 16.893 7.2 3.996 10.853-2.112 14.197-8.19 16.436l-20.453 7.53m37.25 9.498c.161.91-.255 1.507-1.079 1.863l-14.095 6.204c-.486.19-.414.596.108.606l15.368.984c.898.05 1.492.467 1.654 1.378l1.857 10.478c.179 1.012-.237 1.608-1.25 1.788l-32.395 5.742c-.962.17-1.61-.238-1.788-1.25l-1.004-5.669c-.171-.961.286-1.617 1.248-1.788l19.944-3.535c.356-.062.324-.528-.047-.565l-21.068-1.33c-.896-.051-1.45-.527-1.612-1.438l-.592-3.341c-.161-.911.195-1.548 1.019-1.903l19.328-8.49c.337-.165.205-.611-.15-.549l-19.944 3.536c-.961.17-1.608-.238-1.788-1.249l-1.004-5.67c-.18-1.013.287-1.618 1.25-1.787l32.396-5.743c1.013-.179 1.608.237 1.788 1.25l1.856 10.478M468 250.647c.016 1.028-.49 1.55-1.517 1.566l-5.758.095c-.976.016-1.55-.49-1.566-1.517l-.203-12.44c-.016-.976-.54-1.534-1.567-1.516l-1.645.026c-.977.015-1.533.591-1.517 1.567l.129 7.968c.017 1.028-.488 1.55-1.517 1.567l-5.756.093c-.976.016-1.551-.488-1.568-1.516l-.13-7.968c-.016-.977-.54-1.533-1.566-1.517l-1.647.028c-.976.014-1.532.589-1.516 1.566l.203 12.439c.017 1.03-.49 1.55-1.518 1.568l-5.757.093c-1.028.016-1.55-.488-1.567-1.516l-.35-21.59c-.018-.976.54-1.551 1.516-1.567l32.898-.536c1.028-.017 1.551.54 1.568 1.517l.351 21.59M457.032 269.9c.132-.916-.435-1.672-1.35-1.804l-3.765-.543c-.917-.132-1.673.434-1.805 1.35l-.373 2.594c-.352 2.443-.223 3.708 2.93 4.162 3.156.456 3.636-.722 3.99-3.164zm-26.477 12.907c-1.426.522-2.732-.498-2.506-2.074l.836-5.801c.074-.508.394-.93.882-1.067l10.988-3.818c.168-.079.292-.218.313-.37l.293-2.034c.134-.916-.433-1.674-1.349-1.806l-8.039-1.158c-.917-.132-1.481-.89-1.35-1.806l.821-5.697c.132-.916.89-1.483 1.805-1.35l32.46 4.678c.915.132 1.482.89 1.35 1.805l-1.607 11.142c-1.304 9.057-5.699 12.162-14.043 10.96-4.732-.682-7.87-2.33-9.414-5.304-.123-.226-.371-.314-.64-.248l-10.8 3.948m28.846 19.326c-.264.994-.894 1.359-1.888 1.094l-31.789-8.492c-.943-.252-1.356-.895-1.09-1.888l1.46-5.464c.25-.944.943-1.344 1.887-1.092l31.79 8.492c.992.264 1.342.944 1.09 1.888l-1.46 5.462m-13.122 4.646c3.165 1.221 11.396 5.17 7.009 16.537-3.943 10.216-11.412 9.15-15.179 7.917-.69-.21-1.052-.846-.937-1.573l.857-5.787c.195-1.081 1.164-1.589 2.227-1.344 2.203.575 3.783.192 4.783-2.397 1.369-3.55-.792-4.659-4.484-6.085l-6.907-2.666c-3.695-1.425-6.04-2.056-7.41 1.494-1.018 2.638-.05 3.838 2.046 4.978.95.532 1.277 1.54.668 2.408l-3.29 4.956c-.403.616-1.098.844-1.798.518-3.572-1.599-9.819-5.828-5.876-16.044 4.388-11.367 13.136-8.763 16.301-7.54l11.99 4.628m-20.838 43.365c2.144 1.221 3.394 1.519 5.074-1.43 1.68-2.947.785-3.87-1.358-5.091l-4.869-2.775c-.848-.483-1.62-.272-2.104.577l-2.188 3.842c-.464.918-.273 1.62.62 2.129zm-23.316-3.107c-.982-.56-1.264-1.312-.754-2.205l2.85-5.004c.483-.848 1.21-1.085 2.103-.576l3.887 2.213c.893.51 1.593.318 2.102-.576l2.188-3.841c.484-.85.318-1.595-.576-2.103l-3.885-2.214c-.893-.51-1.087-1.211-.577-2.104l2.85-5.003c.483-.848 1.299-1.033 2.282-.473l18.938 10.789c5.63 3.207 11.106 7.51 5.379 17.558-5.725 10.051-12.22 7.535-17.848 4.329l-18.939-10.79m2.608 30.267c-.646.799-1.369.875-2.168.228l-4.473-3.625c-.759-.614-.873-1.37-.227-2.168l3.624-4.474c.615-.758 1.41-.841 2.17-.226l4.472 3.622c.798.648.842 1.41.228 2.17l-3.626 4.473m-294.515 3.206c.654.578.837 1.222.56 2.076l-6.13 17.447c-.154.482.222.679.563.294l11.02-12.422c.683-.769 1.447-.778 2.177-.13l4.308 3.82c.769.684.812 1.41.13 2.178l-21.835 24.612c-.648.731-1.409.813-2.177.131L93.18 413.5c-.653-.58-.837-1.224-.56-2.078l6.13-17.446c.154-.483-.222-.679-.563-.295l-11.02 12.422c-.648.732-1.409.813-2.177.13l-4.308-3.821c-.73-.648-.778-1.447-.13-2.177l21.835-24.612c.683-.768 1.447-.78 2.178-.13l5.653 5.016m35.603 26.513c.862.562 1.012 1.274.452 2.135l-3.142 4.826c-.534.817-1.274 1.01-2.134.45l-10.426-6.79c-.819-.531-1.573-.41-2.134.452l-.897 1.378c-.534.82-.368 1.602.45 2.135l6.677 4.347c.862.561 1.012 1.273.452 2.134l-3.142 4.826c-.534.817-1.273 1.012-2.135.45l-6.676-4.348c-.82-.533-1.573-.41-2.135.451l-.898 1.379c-.532.818-.367 1.6.45 2.133l10.427 6.79c.862.56 1.011 1.271.45 2.133l-3.142 4.825c-.56.861-1.272 1.012-2.134.45l-18.093-11.78c-.818-.534-.984-1.317-.45-2.135l17.953-27.57c.562-.862 1.315-.985 2.135-.452l18.092 11.781m2.934 4.376c.218-1.076.928-1.451 1.928-1.043l5.66 2.32c.857.35 1.3 1.032 1.064 1.878l-5.414 20.951c-.101.513.282.67.57.233l11.314-18.532c.474-.75 1.22-.945 2.076-.595l4.092 1.676c.856.351 1.251 1.012 1.064 1.88l-4.94 21.144c-.1.515.28.671.571.234l10.839-18.728c.425-.77 1.22-.944 2.077-.594l5.66 2.32c1 .409 1.241 1.174.641 2.095l-18.342 28.098c-.474.75-1.22.945-2.076.594l-6.708-2.748c-.856-.35-1.206-.992-1.063-1.878l2.176-12.776c.1-.515-.28-.67-.57-.234l-7.411 10.632c-.52.73-1.22.944-2.076.594l-6.708-2.748c-.856-.351-1.252-1.014-1.064-1.88l6.64-32.893m67.265 33.132c.541-3.92.617-6.35-3.15-6.87-3.769-.52-4.354 1.838-4.895 5.759l-1.012 7.333c-.542 3.921-.618 6.348 3.149 6.87 3.77.52 4.355-1.838 4.895-5.76zm7.373 11.24c-.464 3.36-2.421 12.275-14.489 10.61-12.07-1.666-11.537-10.779-11.072-14.139l1.757-12.73c.464-3.362 2.42-12.276 14.488-10.61 12.07 1.666 11.538 10.778 11.075 14.14l-1.759 12.73m16.551-15.283c-.925.016-1.583.695-1.568 1.62l.063 3.804c.013.925.693 1.583 1.618 1.568l2.622-.044c2.468-.039 3.696-.368 3.645-3.555-.052-3.188-1.292-3.476-3.76-3.436zm16.948 24.097c.741 1.324-.057 2.777-1.652 2.803l-5.859.095c-.514.008-.981-.24-1.194-.7l-5.515-10.246c-.104-.152-.26-.252-.415-.249l-2.056.032c-.925.016-1.582.695-1.568 1.62l.134 8.123c.013.923-.644 1.604-1.568 1.618l-5.758.093c-.925.017-1.605-.64-1.62-1.566l-.533-32.796c-.015-.926.643-1.604 1.567-1.62l11.257-.183c9.15-.15 12.915 3.698 13.053 12.128.078 4.78-1.052 8.14-3.742 10.139-.203.157-.252.415-.146.67l5.615 10.04m8.224-34.521c1.017-.15 1.601.283 1.75 1.302l3.51 23.801c.141.967.784 1.444 1.75 1.301l11.342-1.672c1.017-.15 1.6.284 1.75 1.301l.84 5.697c.15 1.019-.283 1.6-1.3 1.75l-20.091 2.962c-.966.142-1.608-.334-1.751-1.302l-4.797-32.55c-.151-1.016.334-1.608 1.301-1.75l5.696-.84m39.445-9.126c.988-.287 1.626.065 1.911 1.053l1.601 5.53c.272.938-.064 1.625-1.052 1.91l-11.949 3.461c-.937.271-1.339.923-1.052 1.911l.457 1.58c.274.937.972 1.324 1.912 1.052l7.654-2.217c.986-.286 1.624.065 1.909 1.052l1.603 5.53c.272.938-.066 1.624-1.054 1.911l-7.653 2.216c-.939.272-1.337.923-1.052 1.91l.459 1.58c.27.94.97 1.325 1.91 1.054l11.948-3.462c.988-.286 1.624.065 1.911 1.053l1.601 5.53c.287.987-.064 1.624-1.052 1.91l-20.738 6.007c-.938.271-1.638-.114-1.91-1.053l-9.153-31.6c-.287-.988.113-1.64 1.052-1.91l20.737-6.008m23.611 3.297c-1.025-2.245-1.865-3.217-4.95-1.81-3.087 1.411-2.902 2.682-1.878 4.927l2.327 5.098c.406.888 1.156 1.168 2.044.761l4.021-1.836c.915-.473 1.168-1.155.741-2.09zm17.096 16.156c.47 1.028.257 1.803-.677 2.23l-5.239 2.39c-.888.407-1.616.173-2.043-.761l-1.857-4.07c-.427-.934-1.11-1.189-2.044-.761l-4.02 1.836c-.888.405-1.19 1.108-.764 2.042l1.859 4.07c.426.935.173 1.616-.763 2.042l-5.237 2.393c-.89.404-1.659.078-2.13-.95l-9.052-19.828c-2.69-5.892-4.616-12.585 5.907-17.389 10.52-4.804 14.317 1.036 17.007 6.928l9.053 19.828m-4.108-37.428c.73-.48 1.4-.49 2.153.001l15.236 10.479c.426.275.714-.039.431-.467l-9.108-13.885c-.564-.86-.372-1.599.444-2.136l4.813-3.158c.862-.563 1.572-.415 2.138.445l18.046 27.51c.535.816.416 1.571-.444 2.135l-6.318 4.145c-.731.479-1.402.49-2.154-.001l-15.236-10.479c-.426-.274-.713.038-.432.467l9.108 13.884c.538.817.418 1.572-.442 2.136l-4.814 3.158c-.817.535-1.6.373-2.136-.443l-18.048-27.511c-.564-.86-.373-1.599.444-2.136l6.319-4.144m39.521-14.488c-.626.84-1.318.839-2.121.176-1.673-1.33-3.83-1.192-5.628.421-1.493 1.339-1.623 3.043-.68 3.786 3.213 2.505 15.24-8.418 23.135.385 1.029 1.148 5.802 9.09-3.268 17.225-8.038 7.208-14.498 3.471-17.366.656-.656-.654-.689-1.384-.137-2.154l3.467-4.836c.628-.84 1.358-.874 2.156-.138 1.8 1.7 4.177 1.501 5.977-.11 1.875-1.683 2.256-4.028 1.101-4.856-3.646-2.602-14.513 8.457-22.409-.346-1.068-1.114-6.455-8.506 2.12-16.196 7.884-7.07 14.321-3.589 17.023-1.038.656.654.688 1.384.136 2.154l-3.506 4.871"/></svg>